<svg width="26" height="27" viewBox="0 0 26 27" fill="none" xmlns="http://www.w3.org/2000/svg">
<path fill-rule="evenodd" clip-rule="evenodd" d="M24.9167 0.988281C25.515 0.988282 26 1.47331 26 2.07161V25.9049C26 26.5033 25.515 26.9883 24.9167 26.9883H1.08333C0.485025 26.9883 1.74489e-08 26.5033 0 25.9049V2.07161C2.79182e-07 1.47331 0.485025 0.988281 1.08333 0.988281H24.9167ZM3.11723 24.2799H7.36698V10.5579H3.11723V24.2799ZM18.2971 10.1384C15.3948 10.1385 14.1681 12.3913 14.16 12.4061V10.5579H10.0838V24.2799H14.16V17.0764C14.1601 15.1465 15.0483 13.9978 16.7488 13.9978C18.3119 13.9978 19.0625 15.1016 19.0625 17.0764V24.2799H23.2917V15.5921C23.2917 11.9161 21.2077 10.1384 18.2971 10.1384ZM5.22148 3.69661C3.83324 3.69669 2.70833 4.83051 2.70833 6.2288C2.70835 7.62708 3.83325 8.76091 5.22148 8.76099C6.60977 8.76099 7.73407 7.62712 7.73409 6.2288C7.73409 4.83046 6.60978 3.69661 5.22148 3.69661Z" fill="white"/>
</svg>
