<svg width="160" height="148" viewBox="0 0 160 148" fill="none" xmlns="http://www.w3.org/2000/svg">
<path d="M12.596 34.1078V2.71581H0.5V0.507812H27.14V2.71581H15.044V34.1078H12.596Z" fill="white"/>
<path d="M55.7229 0.507812H58.1709V34.1078H55.7229V0.507812ZM33.2589 34.1078H30.8109V0.507812H33.2589V34.1078ZM56.0109 18.1238H32.9709V15.9638H56.0109V18.1238Z" fill="white"/>
<path d="M69.6646 15.9638H87.8566V18.1238H69.6646V15.9638ZM69.9526 31.8998H90.6886V34.1078H67.5046V0.507812H89.9686V2.71581H69.9526V31.8998Z" fill="white"/>
<path d="M1.164 84.1078V50.5078H3.228L27.18 81.0838H26.076V50.5078H28.524V84.1078H26.508L2.508 53.5318H3.612V84.1078H1.164Z" fill="white"/>
<path d="M52.1138 84.3478C49.6178 84.3478 47.2977 83.9318 45.1537 83.0998C43.0417 82.2358 41.1858 81.0358 39.5858 79.4998C38.0178 77.9318 36.8017 76.1238 35.9377 74.0758C35.0737 71.9958 34.6418 69.7398 34.6418 67.3078C34.6418 64.8758 35.0737 62.6358 35.9377 60.5878C36.8017 58.5078 38.0178 56.6998 39.5858 55.1638C41.1858 53.5958 43.0417 52.3958 45.1537 51.5638C47.2977 50.6998 49.6178 50.2678 52.1138 50.2678C54.6097 50.2678 56.9137 50.6998 59.0257 51.5638C61.1698 52.3958 63.0258 53.5798 64.5938 55.1158C66.1618 56.6518 67.3778 58.4598 68.2418 60.5398C69.1378 62.5878 69.5858 64.8438 69.5858 67.3078C69.5858 69.7718 69.1378 72.0438 68.2418 74.1238C67.3778 76.1718 66.1618 77.9638 64.5938 79.4998C63.0258 81.0358 61.1698 82.2358 59.0257 83.0998C56.9137 83.9318 54.6097 84.3478 52.1138 84.3478ZM52.1138 82.0918C54.2578 82.0918 56.2417 81.7238 58.0658 80.9878C59.8897 80.2518 61.4737 79.2118 62.8177 77.8678C64.1617 76.5238 65.2018 74.9558 65.9378 73.1638C66.7058 71.3718 67.0898 69.4198 67.0898 67.3078C67.0898 65.1638 66.7058 63.2118 65.9378 61.4518C65.2018 59.6598 64.1617 58.0918 62.8177 56.7478C61.4737 55.4038 59.8897 54.3638 58.0658 53.6278C56.2417 52.8918 54.2578 52.5238 52.1138 52.5238C49.9698 52.5238 47.9858 52.8918 46.1618 53.6278C44.3378 54.3638 42.7377 55.4038 41.3617 56.7478C40.0177 58.0918 38.9617 59.6598 38.1937 61.4518C37.4577 63.2118 37.0897 65.1638 37.0897 67.3078C37.0897 69.4198 37.4577 71.3718 38.1937 73.1638C38.9617 74.9558 40.0177 76.5238 41.3617 77.8678C42.7377 79.2118 44.3378 80.2518 46.1618 80.9878C47.9858 81.7238 49.9698 82.0918 52.1138 82.0918Z" fill="white"/>
<path d="M75.6765 84.1078V50.5078H87.7245C90.5405 50.5078 92.9565 50.9558 94.9725 51.8518C96.9885 52.7478 98.5405 54.0438 99.6285 55.7398C100.717 57.4038 101.26 59.4358 101.26 61.8358C101.26 64.1718 100.717 66.1878 99.6285 67.8838C98.5405 69.5478 96.9885 70.8438 94.9725 71.7718C92.9565 72.6678 90.5405 73.1158 87.7245 73.1158H77.0205L78.1245 71.9638V84.1078H75.6765ZM99.0045 84.1078L90.2685 71.9158H93.0525L101.788 84.1078H99.0045ZM78.1245 72.1078L77.0205 70.9558H87.7245C91.3405 70.9558 94.0765 70.1558 95.9325 68.5558C97.8205 66.9558 98.7645 64.7158 98.7645 61.8358C98.7645 58.9238 97.8205 56.6838 95.9325 55.1158C94.0765 53.5158 91.3405 52.7158 87.7245 52.7158H77.0205L78.1245 51.5158V72.1078Z" fill="white"/>
<path d="M113.787 84.1078V52.7158H101.691V50.5078H128.331V52.7158H116.235V84.1078H113.787Z" fill="white"/>
<path d="M156.913 50.5078H159.361V84.1078H156.913V50.5078ZM134.449 84.1078H132.001V50.5078H134.449V84.1078ZM157.201 68.1238H134.161V65.9638H157.201V68.1238Z" fill="white"/>
<path d="M1.164 134.108V100.508H13.212C16.028 100.508 18.444 100.956 20.46 101.852C22.476 102.748 24.028 104.044 25.116 105.74C26.204 107.404 26.748 109.436 26.748 111.836C26.748 114.172 26.204 116.188 25.116 117.884C24.028 119.548 22.476 120.844 20.46 121.772C18.444 122.668 16.028 123.116 13.212 123.116H2.508L3.612 121.964V134.108H1.164ZM24.492 134.108L15.756 121.916H18.54L27.276 134.108H24.492ZM3.612 122.108L2.508 120.956H13.212C16.828 120.956 19.564 120.156 21.42 118.556C23.308 116.956 24.252 114.716 24.252 111.836C24.252 108.924 23.308 106.684 21.42 105.116C19.564 103.516 16.828 102.716 13.212 102.716H2.508L3.612 101.516V122.108Z" fill="white"/>
<path d="M47.5669 134.348C45.0709 134.348 42.7509 133.932 40.6069 133.1C38.4949 132.236 36.6389 131.036 35.0389 129.5C33.4709 127.932 32.2549 126.124 31.3909 124.076C30.5269 121.996 30.0949 119.74 30.0949 117.308C30.0949 114.876 30.5269 112.636 31.3909 110.588C32.2549 108.508 33.4709 106.7 35.0389 105.164C36.6389 103.596 38.4949 102.396 40.6069 101.564C42.7509 100.7 45.0709 100.268 47.5669 100.268C50.0629 100.268 52.3669 100.7 54.4789 101.564C56.6229 102.396 58.4789 103.58 60.0469 105.116C61.6149 106.652 62.8309 108.46 63.6949 110.54C64.5909 112.588 65.0389 114.844 65.0389 117.308C65.0389 119.772 64.5909 122.044 63.6949 124.124C62.8309 126.172 61.6149 127.964 60.0469 129.5C58.4789 131.036 56.6229 132.236 54.4789 133.1C52.3669 133.932 50.0629 134.348 47.5669 134.348ZM47.5669 132.092C49.7109 132.092 51.6949 131.724 53.5189 130.988C55.3429 130.252 56.9269 129.212 58.2709 127.868C59.6149 126.524 60.6549 124.956 61.3909 123.164C62.1589 121.372 62.5429 119.42 62.5429 117.308C62.5429 115.164 62.1589 113.212 61.3909 111.452C60.6549 109.66 59.6149 108.092 58.2709 106.748C56.9269 105.404 55.3429 104.364 53.5189 103.628C51.6949 102.892 49.7109 102.524 47.5669 102.524C45.4229 102.524 43.4389 102.892 41.6149 103.628C39.7909 104.364 38.1909 105.404 36.8149 106.748C35.4709 108.092 34.4149 109.66 33.6469 111.452C32.9109 113.212 32.5429 115.164 32.5429 117.308C32.5429 119.42 32.9109 121.372 33.6469 123.164C34.4149 124.956 35.4709 126.524 36.8149 127.868C38.1909 129.212 39.7909 130.252 41.6149 130.988C43.4389 131.724 45.4229 132.092 47.5669 132.092Z" fill="white"/>
<path d="M102.105 134.108V100.508H115.401C118.953 100.508 122.073 101.228 124.761 102.668C127.449 104.108 129.529 106.092 131.001 108.62C132.505 111.148 133.257 114.044 133.257 117.308C133.257 120.572 132.505 123.468 131.001 125.996C129.529 128.524 127.449 130.508 124.761 131.948C122.073 133.388 118.953 134.108 115.401 134.108H102.105ZM104.553 131.9H115.209C118.377 131.9 121.129 131.276 123.465 130.028C125.801 128.78 127.609 127.068 128.889 124.892C130.169 122.684 130.809 120.156 130.809 117.308C130.809 114.46 130.169 111.948 128.889 109.772C127.609 107.564 125.801 105.836 123.465 104.588C121.129 103.34 118.377 102.716 115.209 102.716H104.553V131.9Z" fill="white"/>
<path d="M101.5 147.488H62L80.5 100.43H83L101.5 147.488Z" fill="white"/>
</svg>
