<svg width="160" height="135" viewBox="0 0 160 135" fill="none" xmlns="http://www.w3.org/2000/svg">
<path d="M12.596 34.1781V2.78613H0.5V0.578125H27.14V2.78613H15.044V34.1781H12.596Z" fill="white"/>
<path d="M55.7229 0.578125H58.1709V34.1781H55.7229V0.578125ZM33.2589 34.1781H30.8109V0.578125H33.2589V34.1781ZM56.0109 18.1941H32.9709V16.0341H56.0109V18.1941Z" fill="white"/>
<path d="M69.6646 16.0341H87.8566V18.1941H69.6646V16.0341ZM69.9526 31.9701H90.6886V34.1781H67.5046V0.578125H89.9686V2.78613H69.9526V31.9701Z" fill="white"/>
<path d="M1.164 84.1781V50.5781H3.228L27.18 81.1541H26.076V50.5781H28.524V84.1781H26.508L2.508 53.6021H3.612V84.1781H1.164Z" fill="white"/>
<path d="M52.1138 84.4181C49.6178 84.4181 47.2977 84.0021 45.1537 83.1701C43.0417 82.3061 41.1858 81.1061 39.5858 79.5701C38.0178 78.0021 36.8017 76.1941 35.9377 74.1461C35.0737 72.0661 34.6418 69.8101 34.6418 67.3781C34.6418 64.9461 35.0737 62.7061 35.9377 60.6581C36.8017 58.5781 38.0178 56.7701 39.5858 55.2341C41.1858 53.6661 43.0417 52.4661 45.1537 51.6341C47.2977 50.7701 49.6178 50.3381 52.1138 50.3381C54.6097 50.3381 56.9137 50.7701 59.0257 51.6341C61.1698 52.4661 63.0258 53.6501 64.5938 55.1861C66.1618 56.7221 67.3778 58.5301 68.2418 60.6101C69.1378 62.6581 69.5858 64.9141 69.5858 67.3781C69.5858 69.8421 69.1378 72.1141 68.2418 74.1941C67.3778 76.2421 66.1618 78.0341 64.5938 79.5701C63.0258 81.1061 61.1698 82.3061 59.0257 83.1701C56.9137 84.0021 54.6097 84.4181 52.1138 84.4181ZM52.1138 82.1621C54.2578 82.1621 56.2417 81.7941 58.0658 81.0581C59.8897 80.3221 61.4737 79.2821 62.8177 77.9381C64.1617 76.5941 65.2018 75.0261 65.9378 73.2341C66.7058 71.4421 67.0898 69.4901 67.0898 67.3781C67.0898 65.2341 66.7058 63.2821 65.9378 61.5221C65.2018 59.7301 64.1617 58.1621 62.8177 56.8181C61.4737 55.4741 59.8897 54.4341 58.0658 53.6981C56.2417 52.9621 54.2578 52.5941 52.1138 52.5941C49.9698 52.5941 47.9858 52.9621 46.1618 53.6981C44.3378 54.4341 42.7377 55.4741 41.3617 56.8181C40.0177 58.1621 38.9617 59.7301 38.1937 61.5221C37.4577 63.2821 37.0897 65.2341 37.0897 67.3781C37.0897 69.4901 37.4577 71.4421 38.1937 73.2341C38.9617 75.0261 40.0177 76.5941 41.3617 77.9381C42.7377 79.2821 44.3378 80.3221 46.1618 81.0581C47.9858 81.7941 49.9698 82.1621 52.1138 82.1621Z" fill="white"/>
<path d="M75.6765 84.1781V50.5781H87.7245C90.5405 50.5781 92.9565 51.0261 94.9725 51.9221C96.9885 52.8181 98.5405 54.1141 99.6285 55.8101C100.717 57.4741 101.26 59.5061 101.26 61.9061C101.26 64.2421 100.717 66.2581 99.6285 67.9541C98.5405 69.6181 96.9885 70.9141 94.9725 71.8421C92.9565 72.7381 90.5405 73.1861 87.7245 73.1861H77.0205L78.1245 72.0341V84.1781H75.6765ZM99.0045 84.1781L90.2685 71.9861H93.0525L101.788 84.1781H99.0045ZM78.1245 72.1781L77.0205 71.0261H87.7245C91.3405 71.0261 94.0765 70.2261 95.9325 68.6261C97.8205 67.0261 98.7645 64.7861 98.7645 61.9061C98.7645 58.9941 97.8205 56.7541 95.9325 55.1861C94.0765 53.5861 91.3405 52.7861 87.7245 52.7861H77.0205L78.1245 51.5861V72.1781Z" fill="white"/>
<path d="M113.787 84.1781V52.7861H101.691V50.5781H128.331V52.7861H116.235V84.1781H113.787Z" fill="white"/>
<path d="M156.913 50.5781H159.361V84.1781H156.913V50.5781ZM134.449 84.1781H132.001V50.5781H134.449V84.1781ZM157.201 68.1941H134.161V66.0341H157.201V68.1941Z" fill="white"/>
<path d="M1.164 134.178V100.578H13.212C16.028 100.578 18.444 101.026 20.46 101.922C22.476 102.818 24.028 104.114 25.116 105.81C26.204 107.474 26.748 109.506 26.748 111.906C26.748 114.242 26.204 116.258 25.116 117.954C24.028 119.618 22.476 120.914 20.46 121.842C18.444 122.738 16.028 123.186 13.212 123.186H2.508L3.612 122.034V134.178H1.164ZM24.492 134.178L15.756 121.986H18.54L27.276 134.178H24.492ZM3.612 122.178L2.508 121.026H13.212C16.828 121.026 19.564 120.226 21.42 118.626C23.308 117.026 24.252 114.786 24.252 111.906C24.252 108.994 23.308 106.754 21.42 105.186C19.564 103.586 16.828 102.786 13.212 102.786H2.508L3.612 101.586V122.178Z" fill="white"/>
<path d="M47.5669 134.418C45.0709 134.418 42.7509 134.002 40.6069 133.17C38.4949 132.306 36.6389 131.106 35.0389 129.57C33.4709 128.002 32.2549 126.194 31.3909 124.146C30.5269 122.066 30.0949 119.81 30.0949 117.378C30.0949 114.946 30.5269 112.706 31.3909 110.658C32.2549 108.578 33.4709 106.77 35.0389 105.234C36.6389 103.666 38.4949 102.466 40.6069 101.634C42.7509 100.77 45.0709 100.338 47.5669 100.338C50.0629 100.338 52.3669 100.77 54.4789 101.634C56.6229 102.466 58.4789 103.65 60.0469 105.186C61.6149 106.722 62.8309 108.53 63.6949 110.61C64.5909 112.658 65.0389 114.914 65.0389 117.378C65.0389 119.842 64.5909 122.114 63.6949 124.194C62.8309 126.242 61.6149 128.034 60.0469 129.57C58.4789 131.106 56.6229 132.306 54.4789 133.17C52.3669 134.002 50.0629 134.418 47.5669 134.418ZM47.5669 132.162C49.7109 132.162 51.6949 131.794 53.5189 131.058C55.3429 130.322 56.9269 129.282 58.2709 127.938C59.6149 126.594 60.6549 125.026 61.3909 123.234C62.1589 121.442 62.5429 119.49 62.5429 117.378C62.5429 115.234 62.1589 113.282 61.3909 111.522C60.6549 109.73 59.6149 108.162 58.2709 106.818C56.9269 105.474 55.3429 104.434 53.5189 103.698C51.6949 102.962 49.7109 102.594 47.5669 102.594C45.4229 102.594 43.4389 102.962 41.6149 103.698C39.7909 104.434 38.1909 105.474 36.8149 106.818C35.4709 108.162 34.4149 109.73 33.6469 111.522C32.9109 113.282 32.5429 115.234 32.5429 117.378C32.5429 119.49 32.9109 121.442 33.6469 123.234C34.4149 125.026 35.4709 126.594 36.8149 127.938C38.1909 129.282 39.7909 130.322 41.6149 131.058C43.4389 131.794 45.4229 132.162 47.5669 132.162Z" fill="white"/>
<path d="M102.105 134.178V100.578H115.401C118.953 100.578 122.073 101.298 124.761 102.738C127.449 104.178 129.529 106.162 131.001 108.69C132.505 111.218 133.257 114.114 133.257 117.378C133.257 120.642 132.505 123.538 131.001 126.066C129.529 128.594 127.449 130.578 124.761 132.018C122.073 133.458 118.953 134.178 115.401 134.178H102.105ZM104.553 131.97H115.209C118.377 131.97 121.129 131.346 123.465 130.098C125.801 128.85 127.609 127.138 128.889 124.962C130.169 122.754 130.809 120.226 130.809 117.378C130.809 114.53 130.169 112.018 128.889 109.842C127.609 107.634 125.801 105.906 123.465 104.658C121.129 103.41 118.377 102.786 115.209 102.786H104.553V131.97Z" fill="white"/>
<path d="M98.5 134H65L80.5 100.5H83L98.5 134Z" fill="white"/>
</svg>
