<svg width="26" height="27" viewBox="0 0 26 27" fill="none" xmlns="http://www.w3.org/2000/svg">
<path fill-rule="evenodd" clip-rule="evenodd" d="M26 24.9883C26 26.0929 25.1046 26.9883 24 26.9883H2C0.89543 26.9883 0 26.0929 0 24.9883V2.98828C0 1.88371 0.895431 0.988281 2 0.988281H24C25.1046 0.988281 26 1.88371 26 2.98828V24.9883ZM21.3608 8.4894C21.3397 8.56026 21.2972 8.62326 21.2387 8.66955L15.3245 15.1798C15.0313 15.5003 14.6729 15.7571 14.2726 15.9331C13.8722 16.109 13.4386 16.2004 13 16.2015C12.5617 16.1984 12.1288 16.1059 11.7287 15.9301C11.3286 15.7542 10.97 15.4987 10.6755 15.1798L4.65978 8.54925L4.61868 8.50935C4.4296 8.8175 4.33086 9.17123 4.33333 9.53102V18.5048C4.3344 18.7665 4.38808 19.0257 4.49112 19.2671C4.59423 19.5086 4.74483 19.728 4.93424 19.9122C5.12364 20.0963 5.34822 20.2419 5.59501 20.3408C5.84177 20.4396 6.10596 20.4898 6.37244 20.4883H19.6276C19.8941 20.4899 20.1582 20.4396 20.405 20.3408C20.6518 20.2419 20.8764 20.0963 21.0658 19.9122C21.2552 19.728 21.4058 19.5086 21.5089 19.2671C21.6119 19.0257 21.6656 18.7665 21.6667 18.5048V9.53102C21.6622 9.16314 21.5564 8.80314 21.3608 8.4894ZM6.35249 7.48828C6.07929 7.48915 5.80901 7.54362 5.55752 7.64848C5.56848 7.6593 5.58265 7.6663 5.59803 7.66843L11.6343 14.299C11.8058 14.4885 12.0161 14.6404 12.2516 14.744C12.4871 14.8475 12.7425 14.9005 13.0006 14.8999C13.2582 14.8984 13.5127 14.8443 13.7478 14.7409C13.983 14.6375 14.1941 14.4869 14.3669 14.299L20.301 7.76879C20.3405 7.71224 20.3979 7.66987 20.4642 7.64848C20.2055 7.54354 19.928 7.48917 19.6481 7.48828H6.35249Z" fill="white"/>
</svg>
