<svg width="26" height="27" viewBox="0 0 26 27" fill="none" xmlns="http://www.w3.org/2000/svg">
<path d="M17.16 13.9883C17.16 14.8111 16.916 15.6153 16.4589 16.2995C16.0018 16.9836 15.3521 17.5168 14.592 17.8316C13.8318 18.1465 12.9954 18.2289 12.1884 18.0683C11.3815 17.9078 10.6402 17.5116 10.0584 16.9298C9.47665 16.3481 9.08045 15.6068 8.91993 14.7999C8.75942 13.9929 8.8418 13.1565 9.15666 12.3963C9.47152 11.6362 10.0047 10.9865 10.6888 10.5294C11.3729 10.0723 12.1772 9.82828 13 9.82828C14.1029 9.82954 15.1603 10.2682 15.9402 11.0481C16.72 11.828 17.1587 12.8854 17.16 13.9883ZM26 8.26828V19.7083C25.9978 21.6384 25.2301 23.4888 23.8653 24.8536C22.5005 26.2184 20.6501 26.9861 18.72 26.9883H7.28C5.34989 26.9861 3.49947 26.2184 2.13468 24.8536C0.769886 23.4888 0.00218592 21.6384 0 19.7083V8.26828C0.00218592 6.33818 0.769886 4.48775 2.13468 3.12296C3.49947 1.75817 5.34989 0.990467 7.28 0.988281H18.72C20.6501 0.990467 22.5005 1.75817 23.8653 3.12296C25.2301 4.48775 25.9978 6.33818 26 8.26828ZM19.24 13.9883C19.24 12.7541 18.874 11.5477 18.1884 10.5215C17.5027 9.49536 16.5282 8.69556 15.3879 8.22327C14.2477 7.75098 12.9931 7.62741 11.7826 7.86818C10.5722 8.10895 9.46033 8.70326 8.58765 9.57593C7.71497 10.4486 7.12067 11.5605 6.8799 12.7709C6.63913 13.9814 6.7627 15.236 7.23499 16.3762C7.70728 17.5164 8.50708 18.491 9.53324 19.1767C10.5594 19.8623 11.7658 20.2283 13 20.2283C14.6544 20.2264 16.2405 19.5684 17.4103 18.3986C18.5801 17.2287 19.2381 15.6427 19.24 13.9883ZM21.32 7.22828C21.32 6.91974 21.2285 6.61813 21.0571 6.36159C20.8857 6.10505 20.642 5.9051 20.357 5.78703C20.0719 5.66896 19.7583 5.63806 19.4557 5.69826C19.153 5.75845 18.8751 5.90702 18.6569 6.12519C18.4387 6.34336 18.2902 6.62133 18.23 6.92394C18.1698 7.22655 18.2007 7.54021 18.3187 7.82527C18.4368 8.11032 18.6368 8.35396 18.8933 8.52537C19.1499 8.69679 19.4515 8.78828 19.76 8.78828C20.1737 8.78828 20.5705 8.62392 20.8631 8.33137C21.1556 8.03881 21.32 7.64202 21.32 7.22828Z" fill="white"/>
</svg>
